<?xml version="1.0" encoding="utf-8"?>
<!-- Generator: Adobe Illustrator 23.0.3, SVG Export Plug-In . SVG Version: 6.00 Build 0)  -->
<svg version="1.1" id="Layer_1" xmlns="http://www.w3.org/2000/svg" xmlns:xlink="http://www.w3.org/1999/xlink" x="0px" y="0px"
	 viewBox="0 0 180 180" style="enable-background:new 0 0 180 180;" xml:space="preserve">
<style type="text/css">
	.st0{fill:#04040C;}
	.st1{fill:#FCEE1F;}
</style>
<rect class="st0" width="180" height="180"/>
<path class="st1" d="M12.5,12.5v155h155v-155H12.5z M123.9,104.3c0,5.2-0.9,6-6.8,6H53.2v16.6H35.1v-16.6h18.1V97.8
	c1.7,0.2,3.5,0.3,5.3,0.3h58.5c5.9,0,6.8,0.8,6.8,6L123.9,104.3L123.9,104.3z M144.9,69.8h-4.8h-13.3v12.1c-1.6-0.2-3.2-0.3-4.9-0.3
	H63.4c-5.9,0-6.9-0.8-6.9-5.9c0-5.1,1-5.9,6.9-5.9h63.4V53.2l0,0h18.1V69.8z"/>
</svg>
